<svg xmlns="http://www.w3.org/2000/svg" xml:space="preserve" id="svg44" width="100%" height="100%" style="fill-rule:evenodd;clip-rule:evenodd;stroke-linecap:round;stroke-linejoin:round;stroke-miterlimit:1.5" viewBox="0 0 162 162"><g id="g42" transform="translate(-1744.296 -340.308)scale(1.00315)"><g id="g4" transform="translate(1691.25 292.102)scale(.51216)"><path id="path2" d="M400.21 126.463c0-14.596-11.85-26.446-26.446-26.446H127.302c-14.596 0-26.446 11.85-26.446 26.446v246.462c0 14.596 11.85 26.446 26.446 26.446h246.462c14.596 0 26.446-11.85 26.446-26.446z" style="fill:#3a6ec4;stroke:#353535;stroke-width:15.96px"/></g><g id="g8" transform="matrix(.56596 0 0 .50077 1679.01 303.693)"><path id="path6" d="M119.293 157.895q-.211 1.492-.212 3.041v198.02c0 11.996 9.739 21.734 21.734 21.734h218.98c11.995 0 21.734-9.738 21.734-21.734V162.122h.044v-25.727h-262.28z" style="fill:#353535"/></g><g id="g12" transform="translate(1735.86 290.286)scale(.53032)"><circle id="circle10" cx="270.578" cy="131.176" r="10.964" style="fill:#353535"/></g><g id="g16" transform="translate(1684.51 290.286)scale(.53032)"><circle id="circle14" cx="270.578" cy="131.176" r="10.964" style="fill:#353535"/></g><g id="g20" transform="translate(1710.19 290.286)scale(.53032)"><circle id="circle18" cx="270.578" cy="131.176" r="10.964" style="fill:#353535"/></g><g id="g24" transform="translate(1688.23 297.258)scale(.53032)"><path id="path22" d="m141.514 171.534 32.194 28.461-32.194 29.394" style="fill:none;stroke:#dcdcdc;stroke-width:15.71px"/></g><g id="g28" transform="rotate(90.009 929.427 1097.423)scale(.8926 .83491)"><path id="path26" d="M288.951 203.779c0-10.329-9.287-18.715-20.727-18.715h-8.468c-11.44 0-20.728 8.386-20.728 18.715v46.583c0 9.683 8.162 17.657 18.607 18.618q1.046.096 2.121.096l3.401.379.002 15.847s5.203-6.285 6.616-8.878c2.608-4.785 2.815-7.737 2.815-7.737 2.062 0-.312.117 1.568-.39q.73-.197 1.435-.44c7.806-2.685 13.358-9.509 13.358-17.495z" style="fill:#dcdcdc"/></g><g id="g32" transform="matrix(.00013 .8926 .83491 -.00013 1645.87 225.5)"><path id="path30" d="M288.951 203.779c0-10.329-9.287-18.715-20.727-18.715h-8.468c-11.44 0-20.728 8.386-20.728 18.715v46.583c0 9.683 8.162 17.657 18.607 18.618q1.046.096 2.121.096l3.401.379.002 15.847s5.203-6.285 6.616-8.878c2.608-4.785 2.815-7.737 2.815-7.737 2.062 0-.312.117 1.568-.39q.73-.197 1.435-.44c7.806-2.685 13.358-9.509 13.358-17.495z" style="fill:#dcdcdc"/></g><g id="g36" transform="translate(1680.92 253.83)scale(.53032)"><text id="text34" x="272.44" y="309.715" style="font-weight:700;font-size:75px;font-family:Consolas-Bold,Consolas,monospace;fill:#353535">?</text></g><g id="g40" transform="translate(1674.19 357.342)scale(.53032)"><text id="text38" x="285.881" y="224.283" style="font-weight:700;font-size:75px;font-family:Consolas-Bold,Consolas,monospace;fill:#353535">!</text></g></g></svg>